<?xml version="1.0" standalone="no"?>
<!DOCTYPE svg PUBLIC "-//W3C//DTD SVG 20010904//EN"
 "http://www.w3.org/TR/2001/REC-SVG-20010904/DTD/svg10.dtd">
<svg version="1.0" xmlns="http://www.w3.org/2000/svg"
 width="325.000000pt" height="483.000000pt" viewBox="0 0 325.000000 483.000000"
 preserveAspectRatio="xMidYMid meet">

<g transform="translate(0.000000,483.000000) scale(0.100000,-0.100000)"
fill="#000000" stroke="none">
<path d="M238 4624 c-5 -4 -8 -14 -8 -22 0 -7 81 -96 179 -197 99 -101 212
-226 252 -277 335 -431 524 -906 639 -1607 45 -273 87 -733 78 -851 -3 -45 -3
-45 -26 40 -51 190 -119 357 -274 673 -65 132 -98 210 -98 232 0 98 -75 305
-201 557 -46 91 -64 110 -189 193 -134 89 -169 105 -252 117 -65 9 -97 17
-163 43 -37 15 35 -54 110 -105 119 -80 302 -293 457 -530 171 -262 375 -705
482 -1045 13 -43 43 -165 62 -255 10 -46 -4 -16 -40 85 -60 168 -175 348 -241
380 -63 29 -150 7 -262 -67 -95 -62 -107 -73 -68 -58 16 6 32 14 35 18 11 15
87 59 130 76 25 10 71 18 105 18 57 0 61 -2 92 -38 42 -51 114 -182 151 -274
25 -62 62 -208 62 -241 0 -5 -15 -9 -34 -9 -44 0 -165 -25 -208 -44 l-33 -14
37 -16 c146 -63 701 -63 847 1 l36 15 -32 14 c-31 13 -154 38 -247 50 -47 5
-48 6 -42 35 20 101 111 256 231 394 56 64 70 72 250 144 72 28 155 68 185 89
55 38 100 92 100 121 -1 10 -6 6 -15 -10 -10 -18 -31 -33 -61 -43 -26 -9 -68
-35 -93 -59 -48 -45 -113 -69 -133 -49 -11 11 94 83 201 136 40 21 71 39 68
42 -6 6 -192 -82 -264 -124 -50 -30 -52 -30 -69 -11 -40 45 -94 13 -94 -56 0
-40 -5 -48 -56 -97 -73 -69 -170 -191 -219 -274 -22 -37 -41 -62 -43 -56 -2 6
15 73 38 149 120 394 310 761 483 933 136 136 315 248 447 281 40 10 48 14 30
17 -37 4 -196 -53 -265 -95 -116 -71 -268 -204 -322 -283 -9 -14 -20 -27 -24
-30 -4 -3 -34 -48 -68 -100 -76 -116 -207 -378 -261 -520 -46 -122 -49 -109
-15 58 73 360 204 740 365 1062 93 186 100 198 203 368 74 122 88 139 164 198
46 36 83 67 83 69 0 2 -16 -3 -35 -11 -72 -30 -77 -38 125 216 99 125 238 279
380 419 124 122 128 132 16 39 -202 -169 -531 -530 -653 -717 -1 -2 -34 -12
-73 -22 -164 -44 -277 -158 -299 -301 -9 -55 1 -155 19 -204 9 -24 6 -38 -26
-102 -157 -323 -258 -601 -345 -951 -23 -93 -33 -103 -25 -26 3 33 8 110 11
170 26 483 77 897 170 1375 35 181 125 547 180 737 25 84 45 156 45 159 0 3
-15 -10 -33 -28 -19 -18 -50 -48 -69 -66 -59 -54 -80 -111 -87 -232 -7 -118
-13 -132 -84 -210 -63 -69 -82 -113 -96 -221 -18 -135 -37 -196 -98 -314 -49
-96 -56 -117 -56 -165 1 -73 32 -151 93 -232 l50 -66 -20 -162 c-21 -175 -58
-577 -61 -677 -2 -61 -19 -116 -19 -62 0 24 -13 109 -46 304 -62 367 -186 793
-310 1070 -14 32 -18 61 -15 145 3 156 -31 264 -107 336 -175 166 -227 233
-325 414 -84 156 -180 228 -316 238 -36 2 -69 1 -73 -4z"/>
<path d="M2598 3053 c6 -2 18 -2 25 0 6 3 1 5 -13 5 -14 0 -19 -2 -12 -5z"/>
</g>
</svg>
